HIERARCHY
ROOT Hips
{
	OFFSET 0.000000 71.427986 0.000000
	CHANNELS 6 Xposition Yposition Zposition Xrotation Yrotation Zrotation
	JOINT Pelvis
	{
		OFFSET 0.000000 0.000000 0.000000
		CHANNELS 3 Xrotation Yrotation Zrotation
		JOINT LeftUpLeg
		{
			OFFSET 6.797100 -2.508499 -1.318700
			CHANNELS 3 Xrotation Yrotation Zrotation
			JOINT LeftLeg
			{
				OFFSET 0.069008 -29.241863 0.690200
				CHANNELS 3 Xrotation Yrotation Zrotation
				JOINT LeftFoot
				{
					OFFSET -0.069008 -29.568123 -0.266800
					CHANNELS 3 Xrotation Yrotation Zrotation
					JOINT LeftToeBase
					{
						OFFSET 3.145500 -8.631000 16.059900
						CHANNELS 3 Xrotation Yrotation Zrotation
						End Site
						{
							OFFSET 0.000000 18.501587 0.000000
						}
					}
				}
			}
			JOINT Left_ShortSleeve
			{
				OFFSET 0.265923 -10.480953 1.153800
				CHANNELS 3 Xrotation Yrotation Zrotation
				End Site
				{
					OFFSET 1.725763 19.823879 0.000000
				}
			}
		}
		JOINT RightUpLeg
		{
			OFFSET -6.797100 -2.508499 -1.318700
			CHANNELS 3 Xrotation Yrotation Zrotation
			JOINT RightLeg
			{
				OFFSET -0.082453 -29.241932 0.688000
				CHANNELS 3 Xrotation Yrotation Zrotation
				JOINT RightFoot
				{
					OFFSET 0.082453 -29.568058 -0.264600
					CHANNELS 3 Xrotation Yrotation Zrotation
					JOINT RightToeBase
					{
						OFFSET -3.115300 -8.682800 16.113400
						CHANNELS 3 Xrotation Yrotation Zrotation
						End Site
						{
							OFFSET 0.000000 18.567114 0.000000
						}
					}
				}
			}
			JOINT Right_ShortSleeve
			{
				OFFSET -0.265923 -10.480953 1.153800
				CHANNELS 3 Xrotation Yrotation Zrotation
				End Site
				{
					OFFSET -1.725766 19.823910 0.000000
				}
			}
		}
	}
	JOINT Spine
	{
		OFFSET 0.000000 13.368103 0.470500
		CHANNELS 3 Xrotation Yrotation Zrotation
		JOINT Spine1
		{
			OFFSET 0.147000 13.837402 0.538800
			CHANNELS 3 Xrotation Yrotation Zrotation
			JOINT Spine2
			{
				OFFSET 0.168000 16.242897 -1.435500
				CHANNELS 3 Xrotation Yrotation Zrotation
				JOINT Neck
				{
					OFFSET 0.217200 18.631500 -1.679100
					CHANNELS 3 Xrotation Yrotation Zrotation
					JOINT Head
					{
						OFFSET 0.000000 6.599396 1.385900
						CHANNELS 3 Xrotation Yrotation Zrotation
						JOINT Hat
						{
							OFFSET -0.532200 27.220596 -10.096100
							CHANNELS 3 Xrotation Yrotation Zrotation
							End Site
							{
								OFFSET 0.000000 22.029861 0.000000
							}
						}
						JOINT HairD
						{
							OFFSET -10.777400 17.437393 -1.325900
							CHANNELS 3 Xrotation Yrotation Zrotation
							JOINT HairD1
							{
								OFFSET -3.290299 -11.051193 1.062200
								CHANNELS 3 Xrotation Yrotation Zrotation
								End Site
								{
									OFFSET 0.000000 11.579437 0.000000
								}
							}
						}
						JOINT HairB
						{
							OFFSET -10.777400 17.437393 1.467900
							CHANNELS 3 Xrotation Yrotation Zrotation
							JOINT HairB1
							{
								OFFSET -1.561200 -12.956299 3.590200
								CHANNELS 3 Xrotation Yrotation Zrotation
								End Site
								{
									OFFSET 0.000000 13.534866 0.000000
								}
							}
						}
						JOINT HairA
						{
							OFFSET 9.713100 17.437393 1.467900
							CHANNELS 3 Xrotation Yrotation Zrotation
							JOINT HairA1
							{
								OFFSET 1.561200 -12.956299 3.590200
								CHANNELS 3 Xrotation Yrotation Zrotation
								End Site
								{
									OFFSET 0.000000 13.534866 0.000000
								}
							}
						}
						JOINT HairC
						{
							OFFSET 9.713100 17.437393 -1.325900
							CHANNELS 3 Xrotation Yrotation Zrotation
							JOINT HairC1
							{
								OFFSET 3.290300 -11.051193 1.062200
								CHANNELS 3 Xrotation Yrotation Zrotation
								End Site
								{
									OFFSET 0.000000 11.579437 0.000000
								}
							}
						}
					}
				}
				JOINT LeftShoulder
				{
					OFFSET 5.101800 15.108002 -2.763700
					CHANNELS 3 Xrotation Yrotation Zrotation
					JOINT LeftArm
					{
						OFFSET 9.825497 2.506317 -1.597400
						CHANNELS 3 Xrotation Yrotation Zrotation
						JOINT LeftForeArm
						{
							OFFSET 21.966244 0.000000 0.000000
							CHANNELS 3 Xrotation Yrotation Zrotation
							JOINT LeftHand
							{
								OFFSET 33.879036 0.000000 0.000000
								CHANNELS 3 Xrotation Yrotation Zrotation
								JOINT LeftHandThumb1
								{
									OFFSET 6.715286 -2.359680 3.363841
									CHANNELS 3 Xrotation Yrotation Zrotation
									JOINT LeftHandThumb2
									{
										OFFSET 2.507072 -1.447464 1.447461
										CHANNELS 3 Xrotation Yrotation Zrotation
										JOINT LeftHandThumb3
										{
											OFFSET 2.898338 -1.673355 1.673357
											CHANNELS 3 Xrotation Yrotation Zrotation
											End Site
											{
												OFFSET -0.295959 3.727692 -0.131651
											}
										}
									}
								}
								JOINT LeftHandIndex1
								{
									OFFSET 14.190811 -0.254547 3.840278
									CHANNELS 3 Xrotation Yrotation Zrotation
									JOINT LeftHandIndex2
									{
										OFFSET 3.551727 0.000000 -0.000000
										CHANNELS 3 Xrotation Yrotation Zrotation
										JOINT LeftHandIndex3
										{
											OFFSET 2.894196 0.000000 0.000000
											CHANNELS 3 Xrotation Yrotation Zrotation
											End Site
											{
												OFFSET -1.000603 2.690872 0.366626
											}
										}
									}
								}
								JOINT LeftHandMiddle1
								{
									OFFSET 13.776489 0.000000 0.000000
									CHANNELS 3 Xrotation Yrotation Zrotation
									JOINT LeftHandMiddle2
									{
										OFFSET 3.438232 0.000000 0.000000
										CHANNELS 3 Xrotation Yrotation Zrotation
										JOINT LeftHandMiddle3
										{
											OFFSET 3.691551 0.000000 0.000000
											CHANNELS 3 Xrotation Yrotation Zrotation
											End Site
											{
												OFFSET -1.082298 3.499527 0.457670
											}
										}
									}
								}
								JOINT LeftHandRing1
								{
									OFFSET 13.966164 -0.268127 -3.067488
									CHANNELS 3 Xrotation Yrotation Zrotation
									JOINT LeftHandRing2
									{
										OFFSET 3.162567 0.000000 0.000000
										CHANNELS 3 Xrotation Yrotation Zrotation
										JOINT LeftHandRing3
										{
											OFFSET 3.324348 0.000000 0.000000
											CHANNELS 3 Xrotation Yrotation Zrotation
											End Site
											{
												OFFSET -0.861900 3.184998 0.405154
											}
										}
									}
								}
								JOINT LeftHandPinky1
								{
									OFFSET 13.131393 -0.168503 -5.746925
									CHANNELS 3 Xrotation Yrotation Zrotation
									JOINT LeftHandPinky2
									{
										OFFSET 2.849182 0.000000 0.000000
										CHANNELS 3 Xrotation Yrotation Zrotation
										JOINT LeftHandPinky3
										{
											OFFSET 2.805038 0.000000 0.000000
											CHANNELS 3 Xrotation Yrotation Zrotation
											End Site
											{
												OFFSET -0.882500 2.642609 0.325652
											}
										}
									}
								}
							}
							JOINT Left_Sleeve
							{
								OFFSET 6.592125 -0.646545 0.805568
								CHANNELS 3 Xrotation Yrotation Zrotation
								End Site
								{
									OFFSET -0.000179 20.275787 -0.000000
								}
							}
						}
					}
				}
				JOINT RightShoulder
				{
					OFFSET -5.731700 15.108002 -2.763700
					CHANNELS 3 Xrotation Yrotation Zrotation
					JOINT RightArm
					{
						OFFSET -9.825497 2.506317 -1.597400
						CHANNELS 3 Xrotation Yrotation Zrotation
						JOINT RightForeArm
						{
							OFFSET -21.966242 0.000000 0.000000
							CHANNELS 3 Xrotation Yrotation Zrotation
							JOINT RightHand
							{
								OFFSET -33.879032 0.000000 0.000000
								CHANNELS 3 Xrotation Yrotation Zrotation
								JOINT RightHandThumb1
								{
									OFFSET -6.715286 -2.359680 3.363841
									CHANNELS 3 Xrotation Yrotation Zrotation
									JOINT RightHandThumb2
									{
										OFFSET -2.507072 -1.447464 1.447461
										CHANNELS 3 Xrotation Yrotation Zrotation
										JOINT RightHandThumb3
										{
											OFFSET -2.898338 -1.673355 1.673357
											CHANNELS 3 Xrotation Yrotation Zrotation
											End Site
											{
												OFFSET 0.295959 3.727692 -0.131651
											}
										}
									}
								}
								JOINT RightHandIndex1
								{
									OFFSET -14.190811 -0.254547 3.840278
									CHANNELS 3 Xrotation Yrotation Zrotation
									JOINT RightHandIndex2
									{
										OFFSET -3.551727 0.000000 -0.000000
										CHANNELS 3 Xrotation Yrotation Zrotation
										JOINT RightHandIndex3
										{
											OFFSET -2.894196 0.000000 0.000000
											CHANNELS 3 Xrotation Yrotation Zrotation
											End Site
											{
												OFFSET 1.000603 2.690872 0.366626
											}
										}
									}
								}
								JOINT RightHandMiddle1
								{
									OFFSET -13.776489 0.000000 0.000000
									CHANNELS 3 Xrotation Yrotation Zrotation
									JOINT RightHandMiddle2
									{
										OFFSET -3.438232 0.000000 0.000000
										CHANNELS 3 Xrotation Yrotation Zrotation
										JOINT RightHandMiddle3
										{
											OFFSET -3.691551 0.000000 0.000000
											CHANNELS 3 Xrotation Yrotation Zrotation
											End Site
											{
												OFFSET 1.082298 3.499527 0.457670
											}
										}
									}
								}
								JOINT RightHandRing1
								{
									OFFSET -13.966164 -0.268127 -3.067488
									CHANNELS 3 Xrotation Yrotation Zrotation
									JOINT RightHandRing2
									{
										OFFSET -3.162567 0.000000 0.000000
										CHANNELS 3 Xrotation Yrotation Zrotation
										JOINT RightHandRing3
										{
											OFFSET -3.324348 0.000000 0.000000
											CHANNELS 3 Xrotation Yrotation Zrotation
											End Site
											{
												OFFSET 0.861900 3.184998 0.405154
											}
										}
									}
								}
								JOINT RightHandPinky1
								{
									OFFSET -13.131393 -0.168503 -5.746925
									CHANNELS 3 Xrotation Yrotation Zrotation
									JOINT RightHandPinky2
									{
										OFFSET -2.849182 0.000000 0.000000
										CHANNELS 3 Xrotation Yrotation Zrotation
										JOINT RightHandPinky3
										{
											OFFSET -2.805038 0.000000 0.000000
											CHANNELS 3 Xrotation Yrotation Zrotation
											End Site
											{
												OFFSET 0.882500 2.642609 0.325652
											}
										}
									}
								}
							}
							JOINT Right_Sleeve
							{
								OFFSET -6.592125 -0.646545 0.805568
								CHANNELS 3 Xrotation Yrotation Zrotation
								End Site
								{
									OFFSET 0.000179 20.275787 -0.000000
								}
							}
						}
					}
				}
				JOINT Bind_Right_JacketString
				{
					OFFSET -3.534800 11.969597 7.200700
					CHANNELS 3 Xrotation Yrotation Zrotation
					JOINT Bind_Right_JacketString1
					{
						OFFSET -0.319900 -6.102600 2.794100
						CHANNELS 3 Xrotation Yrotation Zrotation
						End Site
						{
							OFFSET 0.000000 6.719452 0.000000
						}
					}
				}
				JOINT Bind_Left_JacketString
				{
					OFFSET 2.904800 11.969597 7.200700
					CHANNELS 3 Xrotation Yrotation Zrotation
					JOINT Bind_Left_JacketString1
					{
						OFFSET 0.364800 -5.904503 3.186800
						CHANNELS 3 Xrotation Yrotation Zrotation
						End Site
						{
							OFFSET 0.000000 6.719513 0.000000
						}
					}
				}
				JOINT HairE
				{
					OFFSET 5.915200 17.612701 -11.592200
					CHANNELS 3 Xrotation Yrotation Zrotation
					JOINT HairE1
					{
						OFFSET 0.289200 -7.171898 -1.284500
						CHANNELS 3 Xrotation Yrotation Zrotation
						End Site
						{
							OFFSET 0.000000 7.291756 0.000000
						}
					}
				}
				JOINT HairF
				{
					OFFSET -0.864800 17.612701 -11.592200
					CHANNELS 3 Xrotation Yrotation Zrotation
					JOINT HairF1
					{
						OFFSET 0.000000 -14.087097 -2.127501
						CHANNELS 3 Xrotation Yrotation Zrotation
						End Site
						{
							OFFSET 0.000000 14.246841 0.000000
						}
					}
				}
				JOINT HairG
				{
					OFFSET -8.087700 17.612701 -11.592200
					CHANNELS 3 Xrotation Yrotation Zrotation
					JOINT HairG1
					{
						OFFSET -0.293600 -6.081398 -0.910100
						CHANNELS 3 Xrotation Yrotation Zrotation
						End Site
						{
							OFFSET 0.000000 6.156120 0.000000
						}
					}
				}
			}
		}
	}
	JOINT Pouch
	{
		OFFSET 0.000000 4.394501 10.847300
		CHANNELS 3 Xrotation Yrotation Zrotation
		End Site
		{
			OFFSET 0.000000 21.880577 0.000000
		}
	}
	JOINT Bag
	{
		OFFSET -13.229000 4.813004 -0.593300
		CHANNELS 3 Xrotation Yrotation Zrotation
		End Site
		{
			OFFSET 0.000000 21.880577 0.000000
		}
	}
	JOINT OccupyGuyFacialAnim_Joint
	{
		OFFSET 1.000000 -70.206398 -1.655000
		CHANNELS 3 Xrotation Yrotation Zrotation
		End Site
		{
			OFFSET 0.000000 21.880577 0.000000
		}
	}
}
MOTION
Frames: 4
Frame Time: 0.033333
6.079508 66.025558 8.097359 28.225548 -33.061070 -1.029703 -0.000001 -0.000001 0.000000 -51.646766 11.664093 27.423995 52.783401 9.163623 -12.292918 -29.063647 -6.621252 1.738239 0.000000 -0.000000 0.000000 0.000001 -0.000001 0.000000 -23.885592 3.453877 -2.330812 10.245935 7.543631 1.014311 -10.172802 -3.761140 15.727870 -0.000000 -0.000002 0.000000 0.000000 0.000001 -0.000000 21.223641 1.208545 -13.339249 -3.024942 0.736374 7.161214 -3.162097 1.844441 6.824595 -25.395845 27.505674 -1.224509 -25.658017 19.044813 4.537440 0.000000 0.000000 0.000000 0.000000 0.000000 0.000000 0.000000 0.000000 0.000000 0.000000 0.000000 0.000000 0.000001 0.000000 -0.000000 0.000000 0.000000 0.000000 0.000001 0.000000 -0.000000 0.000000 0.000000 0.000000 0.000000 0.000000 0.000000 10.505148 -8.247934 37.716837 -40.960617 11.632631 -11.606051 59.242862 -13.804153 31.374153 -85.265623 3.833190 9.074466 17.551583 -5.699190 -12.932301 10.850508 26.127704 8.644805 -0.000001 0.000001 -0.000000 13.980901 1.201542 -55.004412 0.370786 1.161733 -65.441852 0.000002 -0.000003 -0.000002 7.504716 1.174526 -63.778531 1.807803 1.475617 -64.567909 0.000002 -0.000001 -0.000001 8.574302 2.179085 -75.149040 -0.207615 1.009266 -57.855042 -0.000001 0.000001 0.000002 10.030079 13.637105 -84.750285 0.877095 0.062358 -64.595531 -0.000003 -0.000001 -0.000003 -0.000002 0.000000 0.000000 7.288853 2.139725 15.929121 39.029767 16.699208 32.970744 10.327267 24.713189 -5.257174 -0.573905 4.259125 4.033522 15.788517 -2.734492 -17.205868 -2.198308 -31.113554 7.361254 -0.000001 0.000000 -0.000000 2.356115 -3.658908 8.611660 -2.163335 -2.468939 18.798038 -0.000002 0.000001 0.000004 -1.980779 -5.698348 13.787386 0.276088 -5.096292 27.112613 0.000006 -0.000001 -0.000001 -3.263850 -8.554436 11.895127 4.041513 -4.053450 33.386822 -0.000002 -0.000003 -0.000003 -6.491102 -11.337608 23.385944 10.713970 -2.577619 34.948705 -0.000001 -0.000001 -0.000005 0.000000 -0.000000 0.000001 0.000001 0.000003 -0.000000 -0.000000 0.000000 -0.000001 0.000001 0.000003 -0.000000 0.000001 0.000003 -0.000000 0.000001 0.000003 -0.000000 -0.000000 0.000000 -0.000001 0.000001 0.000003 -0.000000 0.000001 0.000003 -0.000000 0.000001 0.000003 -0.000000 -0.000000 0.000000 -0.000001 -0.000001 -0.000001 0.000000 -0.000001 -0.000001 0.000000 -0.000001 -0.000001 0.000000 
6.153756 65.806564 8.247362 29.346000 -31.916204 -1.224495 -0.000001 0.000000 -0.000001 -53.269656 11.218856 27.787977 53.313858 7.779048 -12.652067 -29.336031 -6.917495 2.524934 -0.000000 -0.000000 0.000000 0.000001 0.000000 -0.000000 -24.405500 2.542414 -2.137658 10.044569 7.333150 0.980182 -10.703203 -4.127128 15.786174 -0.000000 0.000002 -0.000000 -0.000000 0.000001 -0.000002 21.516931 1.015360 -14.296465 -3.285235 0.820040 7.269618 -3.428416 1.868914 6.925808 -25.785952 26.337536 -0.535411 -26.353137 18.249463 4.442417 0.000000 0.000002 -0.000000 0.000000 0.000002 -0.000000 0.000000 0.000002 0.000000 0.000000 0.000002 0.000000 0.000001 0.000002 0.000000 0.000000 0.000002 0.000000 0.000001 0.000002 0.000000 0.000000 0.000002 -0.000000 0.000000 0.000002 -0.000000 10.516068 -8.184337 36.782211 -42.118204 12.613331 -11.965310 57.613301 -13.759587 30.236523 -83.562577 3.754797 8.754270 17.551583 -5.699185 -12.932301 10.850507 26.127709 8.644806 0.000001 0.000002 -0.000000 13.980897 1.201543 -55.004415 0.370783 1.161734 -65.441852 0.000001 0.000000 0.000002 7.504710 1.174526 -63.778524 1.807801 1.475616 -64.567916 0.000000 -0.000002 0.000000 8.574297 2.179086 -75.149040 -0.207617 1.009264 -57.855042 -0.000000 0.000001 -0.000002 10.030074 13.637107 -84.750285 0.877097 0.062354 -64.595524 0.000000 0.000003 0.000001 -0.000003 0.000000 -0.000000 7.260073 2.161107 15.849724 38.352434 16.387050 33.000097 10.160331 23.499484 -5.181427 -0.528461 4.277499 2.869063 15.788508 -2.734498 -17.205875 -2.198309 -31.113557 7.361250 -0.000001 0.000000 0.000001 2.356771 -3.660721 8.628353 -2.163670 -2.469388 18.814654 -0.000002 0.000003 0.000003 -1.980563 -5.698630 13.804004 0.276684 -5.096120 27.129378 0.000004 0.000001 -0.000001 -3.263373 -8.554319 11.911745 4.042223 -4.055141 33.403645 0.000003 -0.000002 -0.000002 -6.489960 -11.337871 23.402610 10.714502 -2.576031 34.965326 0.000004 -0.000001 -0.000003 -0.000001 0.000000 -0.000002 0.000002 -0.000002 0.000002 0.000002 0.000002 0.000001 0.000002 -0.000002 0.000001 0.000002 -0.000002 0.000001 0.000002 -0.000002 0.000002 0.000002 0.000002 0.000001 0.000002 -0.000002 0.000001 0.000002 -0.000002 0.000001 0.000002 -0.000002 0.000002 0.000002 0.000002 0.000001 -0.000001 0.000000 -0.000001 -0.000001 0.000000 -0.000001 -0.000001 0.000000 -0.000001 
6.192615 65.635925 8.363970 30.366475 -30.760573 -1.364537 -0.000002 0.000002 0.000000 -54.660030 10.647695 27.650718 53.666337 6.781749 -12.582977 -29.485595 -6.930298 3.006372 -0.000000 0.000000 -0.000000 -0.000001 0.000001 -0.000000 -24.755829 1.615439 -2.008927 9.640399 7.097152 0.917453 -11.103669 -4.424392 15.825169 -0.000000 -0.000000 -0.000000 0.000000 -0.000001 -0.000000 21.756166 0.905637 -15.139589 -3.399975 0.978005 7.344747 -3.555225 1.967250 6.974957 -26.544603 25.418672 -0.191433 -26.476385 17.303786 4.767843 -0.000000 0.000001 -0.000000 -0.000000 0.000001 -0.000000 -0.000000 0.000001 -0.000000 -0.000000 0.000001 0.000000 -0.000000 0.000002 0.000000 -0.000000 0.000001 0.000000 -0.000000 0.000002 0.000000 -0.000000 0.000001 -0.000000 -0.000000 0.000001 -0.000000 10.583953 -8.100280 35.852971 -41.452384 14.044532 -12.071309 53.558064 -15.944214 29.586057 -82.193288 4.144512 9.869797 17.551583 -5.699193 -12.932302 10.850505 26.127714 8.644805 -0.000000 0.000002 -0.000001 13.980897 1.201541 -55.004418 0.370784 1.161731 -65.441852 -0.000001 0.000002 0.000002 7.504713 1.174524 -63.778531 1.807798 1.475617 -64.567902 -0.000000 0.000002 0.000001 8.574295 2.179086 -75.149040 -0.207615 1.009267 -57.855042 -0.000000 -0.000003 -0.000004 10.030077 13.637103 -84.750285 0.877097 0.062354 -64.595524 -0.000003 -0.000002 -0.000004 -0.000000 -0.000000 0.000001 7.231383 2.184458 15.767867 37.312432 15.905851 33.356363 10.025710 22.573212 -5.119260 -0.483403 4.294062 1.713487 15.788510 -2.734495 -17.205868 -2.198308 -31.113557 7.361248 0.000000 0.000000 0.000004 2.357479 -3.662625 8.644648 -2.164038 -2.469712 18.830874 -0.000004 0.000001 0.000002 -1.980316 -5.698972 13.820305 0.277386 -5.095996 27.145709 0.000000 0.000001 -0.000001 -3.262778 -8.554257 11.928002 4.042924 -4.056976 33.420075 0.000001 -0.000003 -0.000002 -6.488817 -11.338181 23.418832 10.715066 -2.574274 34.981517 -0.000001 0.000003 -0.000002 0.000002 -0.000005 0.000002 0.000003 -0.000001 0.000001 0.000004 0.000001 -0.000002 0.000003 -0.000001 0.000001 0.000003 -0.000001 0.000001 0.000003 -0.000001 0.000001 0.000004 0.000001 -0.000002 0.000003 -0.000001 0.000001 0.000003 -0.000001 0.000001 0.000003 -0.000001 0.000001 0.000004 0.000001 -0.000002 -0.000002 0.000002 0.000000 -0.000002 0.000002 0.000000 -0.000002 0.000002 0.000000 
6.208797 65.493744 8.465389 31.328841 -29.675820 -1.434167 -0.000000 0.000000 0.000000 -55.849166 10.139048 27.509526 53.838399 5.737644 -12.689876 -29.536357 -6.877078 3.568499 -0.000000 0.000000 -0.000000 -0.000001 0.000000 -0.000000 -25.049907 0.726372 -1.924826 9.173613 6.892090 0.827799 -11.437517 -4.681419 15.856289 0.000000 -0.000002 0.000000 -0.000000 -0.000002 0.000000 22.101360 0.778006 -15.982262 -3.495729 1.109993 7.398311 -3.662923 2.046996 7.005226 -27.394987 24.479840 0.273069 -26.606450 16.476901 4.959512 0.000000 0.000002 0.000000 0.000000 0.000002 0.000000 0.000000 0.000002 0.000000 0.000000 0.000002 0.000000 0.000000 0.000002 -0.000000 0.000000 0.000002 0.000000 0.000000 0.000002 -0.000000 0.000000 0.000002 0.000000 0.000000 0.000002 0.000000 10.382734 -7.871197 34.332974 -43.198932 14.785579 -12.490589 49.965969 -17.993679 29.266770 -80.624871 4.985587 9.770327 17.551583 -5.699193 -12.932302 10.850507 26.127714 8.644808 -0.000000 0.000002 -0.000000 13.980901 1.201539 -55.004415 0.370784 1.161729 -65.441846 -0.000000 0.000000 -0.000002 7.504716 1.174526 -63.778531 1.807804 1.475617 -64.567909 0.000000 0.000000 0.000001 8.574298 2.179083 -75.149040 -0.207618 1.009260 -57.855042 0.000001 0.000000 -0.000002 10.030079 13.637101 -84.750285 0.877101 0.062358 -64.595517 -0.000001 0.000001 -0.000002 -0.000001 -0.000001 0.000002 7.201979 2.212183 15.680755 35.952323 15.237676 33.968231 9.921581 21.931621 -5.068411 -0.438780 4.308795 0.570534 15.788512 -2.734488 -17.205873 -2.198309 -31.113554 7.361257 -0.000001 0.000002 0.000001 2.358281 -3.664601 8.660247 -2.164375 -2.469961 18.846401 -0.000000 -0.000001 -0.000002 -1.979773 -5.699395 13.835846 0.278184 -5.095971 27.161347 -0.000001 0.000000 -0.000001 -3.262066 -8.554277 11.943493 4.043623 -4.058999 33.435904 0.000002 0.000001 0.000000 -6.487669 -11.338562 23.434302 10.715655 -2.572626 34.996995 0.000001 0.000001 0.000001 0.000002 -0.000002 0.000001 0.000001 0.000001 -0.000001 -0.000001 -0.000001 0.000000 0.000001 0.000001 -0.000000 0.000001 0.000001 -0.000000 0.000001 0.000001 -0.000001 -0.000001 -0.000001 -0.000000 0.000001 0.000001 -0.000000 0.000001 0.000001 -0.000000 0.000001 0.000001 -0.000001 -0.000001 -0.000001 -0.000000 -0.000000 0.000000 0.000000 -0.000000 0.000000 0.000000 -0.000000 0.000000 0.000000 
